<svg xmlns="http://www.w3.org/2000/svg" xmlns:xlink="http://www.w3.org/1999/xlink" width="512" zoomAndPan="magnify" viewBox="371 401 757 757" height="512" preserveAspectRatio="xMidYMid meet" version="1.0"><defs><clipPath id="80cf17a245"><path d="M 282.527344 34.121094 L 422.96875 34.121094 L 422.96875 414.851562 L 282.527344 414.851562 Z M 282.527344 34.121094 " clip-rule="nonzero"/></clipPath><clipPath id="d202fd55ae"><path d="M 351.527344 34.121094 L 353.96875 34.121094 C 392.078125 34.121094 422.96875 65.015625 422.96875 103.121094 L 422.96875 345.46875 C 422.96875 383.574219 392.078125 414.46875 353.96875 414.46875 L 351.527344 414.46875 C 313.417969 414.46875 282.527344 383.574219 282.527344 345.46875 L 282.527344 103.121094 C 282.527344 65.015625 313.417969 34.121094 351.527344 34.121094 Z M 351.527344 34.121094 " clip-rule="nonzero"/></clipPath><clipPath id="5df50ea148"><path d="M 0.527344 0.121094 L 140.96875 0.121094 L 140.96875 380.640625 L 0.527344 380.640625 Z M 0.527344 0.121094 " clip-rule="nonzero"/></clipPath><clipPath id="fc8d5bcb8e"><path d="M 69.527344 0.121094 L 71.96875 0.121094 C 110.078125 0.121094 140.96875 31.015625 140.96875 69.121094 L 140.96875 311.46875 C 140.96875 349.574219 110.078125 380.46875 71.96875 380.46875 L 69.527344 380.46875 C 31.417969 380.46875 0.527344 349.574219 0.527344 311.46875 L 0.527344 69.121094 C 0.527344 31.015625 31.417969 0.121094 69.527344 0.121094 Z M 69.527344 0.121094 " clip-rule="nonzero"/></clipPath><clipPath id="df9b30d7f0"><rect x="0" width="141" y="0" height="381"/></clipPath><clipPath id="25172510fb"><path d="M 526.515625 39.707031 L 666.957031 39.707031 L 666.957031 414.949219 L 526.515625 414.949219 Z M 526.515625 39.707031 " clip-rule="nonzero"/></clipPath><clipPath id="f1d20fe13f"><path d="M 595.515625 39.707031 L 597.957031 39.707031 C 636.066406 39.707031 666.957031 70.597656 666.957031 108.707031 L 666.957031 345.46875 C 666.957031 383.574219 636.066406 414.46875 597.957031 414.46875 L 595.515625 414.46875 C 557.410156 414.46875 526.515625 383.574219 526.515625 345.46875 L 526.515625 108.707031 C 526.515625 70.597656 557.410156 39.707031 595.515625 39.707031 Z M 595.515625 39.707031 " clip-rule="nonzero"/></clipPath><clipPath id="3e15651c9a"><path d="M 0.515625 0.707031 L 140.957031 0.707031 L 140.957031 375.640625 L 0.515625 375.640625 Z M 0.515625 0.707031 " clip-rule="nonzero"/></clipPath><clipPath id="8e98d1a94a"><path d="M 69.515625 0.707031 L 71.957031 0.707031 C 110.066406 0.707031 140.957031 31.597656 140.957031 69.707031 L 140.957031 306.46875 C 140.957031 344.574219 110.066406 375.46875 71.957031 375.46875 L 69.515625 375.46875 C 31.410156 375.46875 0.515625 344.574219 0.515625 306.46875 L 0.515625 69.707031 C 0.515625 31.597656 31.410156 0.707031 69.515625 0.707031 Z M 69.515625 0.707031 " clip-rule="nonzero"/></clipPath><clipPath id="9512b5d4c3"><rect x="0" width="141" y="0" height="376"/></clipPath><clipPath id="9505576620"><path d="M 283 38 L 669 38 L 669 423 L 283 423 Z M 283 38 " clip-rule="nonzero"/></clipPath><clipPath id="eca8fcd950"><path d="M 597.542969 9.855469 L 696.851562 109.160156 L 354.320312 451.695312 L 255.011719 352.386719 Z M 597.542969 9.855469 " clip-rule="nonzero"/></clipPath><clipPath id="16383c28ad"><path d="M 646.335938 58.644531 L 648.0625 60.371094 C 675.007812 87.316406 675.007812 131.003906 648.0625 157.953125 L 403.347656 402.664062 C 376.402344 429.609375 332.714844 429.609375 305.769531 402.664062 L 304.042969 400.9375 C 277.097656 373.992188 277.097656 330.300781 304.042969 303.355469 L 548.753906 58.644531 C 575.699219 31.699219 619.386719 31.699219 646.335938 58.644531 Z M 646.335938 58.644531 " clip-rule="nonzero"/></clipPath><clipPath id="f92e466ac3"><path d="M 0 0 L 386 0 L 386 385 L 0 385 Z M 0 0 " clip-rule="nonzero"/></clipPath><clipPath id="e2abf58ef2"><path d="M 314.542969 -28.144531 L 413.851562 71.160156 L 71.320312 413.695312 L -27.988281 314.386719 Z M 314.542969 -28.144531 " clip-rule="nonzero"/></clipPath><clipPath id="c658c0590b"><path d="M 363.335938 20.644531 L 365.0625 22.371094 C 392.007812 49.316406 392.007812 93.003906 365.0625 119.953125 L 120.347656 364.664062 C 93.402344 391.609375 49.714844 391.609375 22.769531 364.664062 L 21.042969 362.9375 C -5.902344 335.992188 -5.902344 292.300781 21.042969 265.355469 L 265.753906 20.644531 C 292.699219 -6.300781 336.386719 -6.300781 363.335938 20.644531 Z M 363.335938 20.644531 " clip-rule="nonzero"/></clipPath><clipPath id="83620254bf"><rect x="0" width="386" y="0" height="385"/></clipPath><clipPath id="a82426510b"><path d="M 526 281 L 669 281 L 669 423 L 526 423 Z M 526 281 " clip-rule="nonzero"/></clipPath><clipPath id="3d7489c5b7"><path d="M 597.546875 252.796875 L 696.851562 352.105469 L 597.15625 451.800781 L 497.851562 352.492188 Z M 597.546875 252.796875 " clip-rule="nonzero"/></clipPath><clipPath id="ed7f329f92"><path d="M 646.335938 301.589844 L 648.0625 303.316406 C 675.007812 330.261719 675.007812 373.949219 648.0625 400.894531 L 646.292969 402.664062 C 619.347656 429.609375 575.660156 429.609375 548.714844 402.664062 L 546.988281 400.9375 C 520.039062 373.992188 520.039062 330.304688 546.988281 303.355469 L 548.753906 301.589844 C 575.703125 274.640625 619.390625 274.640625 646.335938 301.589844 Z M 646.335938 301.589844 " clip-rule="nonzero"/></clipPath><clipPath id="6d5df6cd0e"><path d="M 0 0 L 143 0 L 143 142 L 0 142 Z M 0 0 " clip-rule="nonzero"/></clipPath><clipPath id="f723fd88b6"><path d="M 71.546875 -28.203125 L 170.851562 71.105469 L 71.15625 170.800781 L -28.148438 71.492188 Z M 71.546875 -28.203125 " clip-rule="nonzero"/></clipPath><clipPath id="3e9fc8cabb"><path d="M 120.335938 20.589844 L 122.0625 22.316406 C 149.007812 49.261719 149.007812 92.949219 122.0625 119.894531 L 120.292969 121.664062 C 93.347656 148.609375 49.660156 148.609375 22.714844 121.664062 L 20.988281 119.9375 C -5.960938 92.992188 -5.960938 49.304688 20.988281 22.355469 L 22.753906 20.589844 C 49.703125 -6.359375 93.390625 -6.359375 120.335938 20.589844 Z M 120.335938 20.589844 " clip-rule="nonzero"/></clipPath><clipPath id="e585c0bde9"><rect x="0" width="143" y="0" height="142"/></clipPath><clipPath id="3924eeb0da"><path d="M 29 29 L 424 29 L 424 423 L 29 423 Z M 29 29 " clip-rule="nonzero"/></clipPath><clipPath id="c5d49d43f0"><path d="M 352.742188 0.546875 L 452.046875 99.855469 L 100.207031 451.695312 L 0.898438 352.390625 Z M 352.742188 0.546875 " clip-rule="nonzero"/></clipPath><clipPath id="24a6c9641e"><path d="M 401.53125 49.335938 L 403.257812 51.0625 C 430.203125 78.007812 430.203125 121.699219 403.257812 148.644531 L 149.238281 402.664062 C 122.292969 429.609375 78.605469 429.609375 51.65625 402.664062 L 49.929688 400.9375 C 22.984375 373.992188 22.984375 330.304688 49.929688 303.355469 L 303.949219 49.335938 C 330.898438 22.390625 374.585938 22.390625 401.53125 49.335938 Z M 401.53125 49.335938 " clip-rule="nonzero"/></clipPath><clipPath id="3d945dc601"><path d="M 0 0 L 395 0 L 395 394 L 0 394 Z M 0 0 " clip-rule="nonzero"/></clipPath><clipPath id="dd50e035b2"><path d="M 323.742188 -28.453125 L 423.046875 70.855469 L 71.207031 422.695312 L -28.101562 323.390625 Z M 323.742188 -28.453125 " clip-rule="nonzero"/></clipPath><clipPath id="9b755f005b"><path d="M 372.53125 20.335938 L 374.257812 22.0625 C 401.203125 49.007812 401.203125 92.699219 374.257812 119.644531 L 120.238281 373.664062 C 93.292969 400.609375 49.605469 400.609375 22.65625 373.664062 L 20.929688 371.9375 C -6.015625 344.992188 -6.015625 301.304688 20.929688 274.355469 L 274.949219 20.335938 C 301.898438 -6.609375 345.585938 -6.609375 372.53125 20.335938 Z M 372.53125 20.335938 " clip-rule="nonzero"/></clipPath><clipPath id="850d29349e"><rect x="0" width="395" y="0" height="394"/></clipPath><clipPath id="5fd5b4bba3"><rect x="0" width="697" y="0" height="452"/></clipPath></defs><rect x="371" y="401" width="757" height="757" rx="168" fill="#5B3CE3"/><g transform="matrix(1, 0, 0, 1, 401, 524)"><g clip-path="url(#5fd5b4bba3)"><g clip-path="url(#80cf17a245)"><g clip-path="url(#d202fd55ae)"><g transform="matrix(1, 0, 0, 1, 282, 34)"><g clip-path="url(#df9b30d7f0)"><g clip-path="url(#5df50ea148)"><g clip-path="url(#fc8d5bcb8e)"><path fill="#ffffff" fill-opacity="0.5" d="M 0.527344 0.121094 L 140.96875 0.121094 L 140.96875 380.300781 L 0.527344 380.300781 Z M 0.527344 0.121094 " fill-opacity="1" fill-rule="nonzero"/></g></g></g></g></g></g><g clip-path="url(#25172510fb)"><g clip-path="url(#f1d20fe13f)"><g transform="matrix(1, 0, 0, 1, 526, 39)"><g clip-path="url(#9512b5d4c3)"><g clip-path="url(#3e15651c9a)"><g clip-path="url(#8e98d1a94a)"><path fill="#ffffff" fill-opacity="0.5" d="M 0.515625 0.707031 L 140.957031 0.707031 L 140.957031 375.402344 L 0.515625 375.402344 Z M 0.515625 0.707031 " fill-opacity="1" fill-rule="nonzero"/></g></g></g></g></g></g><g clip-path="url(#9505576620)"><g clip-path="url(#eca8fcd950)"><g clip-path="url(#16383c28ad)"><g transform="matrix(1, 0, 0, 1, 283, 38)"><g clip-path="url(#83620254bf)"><g clip-path="url(#f92e466ac3)"><g clip-path="url(#e2abf58ef2)"><g clip-path="url(#c658c0590b)"><path fill="#ffffff" d="M 314.542969 -28.144531 L 413.851562 71.160156 L 71.707031 413.304688 L -27.601562 314 Z M 314.542969 -28.144531 " fill-opacity="1" fill-rule="nonzero"/></g></g></g></g></g></g></g></g><g clip-path="url(#a82426510b)"><g clip-path="url(#3d7489c5b7)"><g clip-path="url(#ed7f329f92)"><g transform="matrix(1, 0, 0, 1, 526, 281)"><g clip-path="url(#e585c0bde9)"><g clip-path="url(#6d5df6cd0e)"><g clip-path="url(#f723fd88b6)"><g clip-path="url(#3e9fc8cabb)"><path fill="#ffffff" d="M 71.546875 -28.203125 L 170.851562 71.105469 L 71.546875 170.414062 L -27.761719 71.105469 Z M 71.546875 -28.203125 " fill-opacity="1" fill-rule="nonzero"/></g></g></g></g></g></g></g></g><g clip-path="url(#3924eeb0da)"><g clip-path="url(#c5d49d43f0)"><g clip-path="url(#24a6c9641e)"><g transform="matrix(1, 0, 0, 1, 29, 29)"><g clip-path="url(#850d29349e)"><g clip-path="url(#3d945dc601)"><g clip-path="url(#dd50e035b2)"><g clip-path="url(#9b755f005b)"><path fill="#ffffff" d="M 323.742188 -28.453125 L 423.046875 70.855469 L 71.59375 422.308594 L -27.714844 323 Z M 323.742188 -28.453125 " fill-opacity="1" fill-rule="nonzero"/></g></g></g></g></g></g></g></g></g></g></svg>