<svg xmlns="http://www.w3.org/2000/svg" xmlns:xlink="http://www.w3.org/1999/xlink" width="978" zoomAndPan="magnify" viewBox="241 647 978 229" height="229" preserveAspectRatio="xMidYMid meet" version="1.0"><defs><g/><clipPath id="bb1f75a21f"><rect x="0" width="729" y="0" height="229"/></clipPath><clipPath id="a0d068a46a"><path d="M 92.003906 11.492188 L 137.3125 11.492188 L 137.3125 134.320312 L 92.003906 134.320312 Z M 92.003906 11.492188 " clip-rule="nonzero"/></clipPath><clipPath id="15dc0fac06"><path d="M 114.65625 11.492188 C 120.664062 11.492188 126.429688 13.878906 130.675781 18.125 C 134.925781 22.375 137.3125 28.136719 137.3125 34.144531 L 137.3125 111.542969 C 137.3125 117.550781 134.925781 123.3125 130.675781 127.5625 C 126.429688 131.8125 120.664062 134.199219 114.65625 134.199219 C 108.648438 134.199219 102.886719 131.8125 98.636719 127.5625 C 94.390625 123.3125 92.003906 117.550781 92.003906 111.542969 L 92.003906 34.144531 C 92.003906 28.136719 94.390625 22.375 98.636719 18.125 C 102.886719 13.878906 108.648438 11.492188 114.65625 11.492188 Z M 114.65625 11.492188 " clip-rule="nonzero"/></clipPath><clipPath id="060b60d481"><path d="M 0.00390625 0.492188 L 45.3125 0.492188 L 45.3125 123.238281 L 0.00390625 123.238281 Z M 0.00390625 0.492188 " clip-rule="nonzero"/></clipPath><clipPath id="a9e1c9a2d3"><path d="M 22.65625 0.492188 C 28.664062 0.492188 34.429688 2.878906 38.675781 7.125 C 42.925781 11.375 45.3125 17.136719 45.3125 23.144531 L 45.3125 100.542969 C 45.3125 106.550781 42.925781 112.3125 38.675781 116.5625 C 34.429688 120.8125 28.664062 123.199219 22.65625 123.199219 C 16.648438 123.199219 10.886719 120.8125 6.636719 116.5625 C 2.390625 112.3125 0.00390625 106.550781 0.00390625 100.542969 L 0.00390625 23.144531 C 0.00390625 17.136719 2.390625 11.375 6.636719 7.125 C 10.886719 2.878906 16.648438 0.492188 22.65625 0.492188 Z M 22.65625 0.492188 " clip-rule="nonzero"/></clipPath><clipPath id="08c34747a6"><rect x="0" width="46" y="0" height="124"/></clipPath><clipPath id="8acbdefff6"><path d="M 170.71875 13.292969 L 216.027344 13.292969 L 216.027344 134.355469 L 170.71875 134.355469 Z M 170.71875 13.292969 " clip-rule="nonzero"/></clipPath><clipPath id="42c3e0d9f4"><path d="M 193.375 13.292969 C 199.382812 13.292969 205.144531 15.679688 209.394531 19.929688 C 213.640625 24.175781 216.027344 29.9375 216.027344 35.949219 L 216.027344 111.542969 C 216.027344 117.550781 213.640625 123.3125 209.394531 127.5625 C 205.144531 131.8125 199.382812 134.199219 193.375 134.199219 C 187.363281 134.199219 181.601562 131.8125 177.355469 127.5625 C 173.105469 123.3125 170.71875 117.550781 170.71875 111.542969 L 170.71875 35.949219 C 170.71875 29.9375 173.105469 24.175781 177.355469 19.929688 C 181.601562 15.679688 187.363281 13.292969 193.375 13.292969 Z M 193.375 13.292969 " clip-rule="nonzero"/></clipPath><clipPath id="83022102f0"><path d="M 0.71875 0.292969 L 46.027344 0.292969 L 46.027344 121.238281 L 0.71875 121.238281 Z M 0.71875 0.292969 " clip-rule="nonzero"/></clipPath><clipPath id="c4e0f71e8d"><path d="M 23.375 0.292969 C 29.382812 0.292969 35.144531 2.679688 39.394531 6.929688 C 43.640625 11.175781 46.027344 16.9375 46.027344 22.949219 L 46.027344 98.542969 C 46.027344 104.550781 43.640625 110.3125 39.394531 114.5625 C 35.144531 118.8125 29.382812 121.199219 23.375 121.199219 C 17.363281 121.199219 11.601562 118.8125 7.355469 114.5625 C 3.105469 110.3125 0.71875 104.550781 0.71875 98.542969 L 0.71875 22.949219 C 0.71875 16.9375 3.105469 11.175781 7.355469 6.929688 C 11.601562 2.679688 17.363281 0.292969 23.375 0.292969 Z M 23.375 0.292969 " clip-rule="nonzero"/></clipPath><clipPath id="9c0d1c77df"><rect x="0" width="47" y="0" height="122"/></clipPath><clipPath id="71bbcf214f"><path d="M 92 13 L 217 13 L 217 137 L 92 137 Z M 92 13 " clip-rule="nonzero"/></clipPath><clipPath id="4de88fe7c4"><path d="M 193.632812 3.660156 L 225.671875 35.699219 L 115.164062 146.207031 L 83.125 114.167969 Z M 193.632812 3.660156 " clip-rule="nonzero"/></clipPath><clipPath id="0c99afd2fc"><path d="M 209.652344 19.679688 C 213.902344 23.929688 216.289062 29.691406 216.289062 35.699219 C 216.289062 41.707031 213.902344 47.46875 209.652344 51.71875 L 131.261719 130.109375 C 127.011719 134.359375 121.25 136.746094 115.242188 136.746094 C 109.234375 136.746094 103.46875 134.359375 99.222656 130.109375 C 94.972656 125.863281 92.585938 120.101562 92.585938 114.09375 C 92.585938 108.082031 94.972656 102.320312 99.222656 98.074219 L 177.613281 19.679688 C 181.863281 15.433594 187.625 13.046875 193.632812 13.046875 C 199.640625 13.046875 205.402344 15.433594 209.652344 19.679688 Z M 209.652344 19.679688 " clip-rule="nonzero"/></clipPath><clipPath id="a758ff65b4"><path d="M 0.359375 0.0390625 L 124.441406 0.0390625 L 124.441406 123.878906 L 0.359375 123.878906 Z M 0.359375 0.0390625 " clip-rule="nonzero"/></clipPath><clipPath id="aed0bfae12"><path d="M 101.632812 -9.339844 L 133.671875 22.699219 L 23.164062 133.207031 L -8.875 101.167969 Z M 101.632812 -9.339844 " clip-rule="nonzero"/></clipPath><clipPath id="82eab4460b"><path d="M 117.652344 6.679688 C 121.902344 10.929688 124.289062 16.691406 124.289062 22.699219 C 124.289062 28.707031 121.902344 34.46875 117.652344 38.71875 L 39.261719 117.109375 C 35.011719 121.359375 29.25 123.746094 23.242188 123.746094 C 17.234375 123.746094 11.46875 121.359375 7.222656 117.109375 C 2.972656 112.863281 0.585938 107.101562 0.585938 101.09375 C 0.585938 95.082031 2.972656 89.320312 7.222656 85.074219 L 85.613281 6.679688 C 89.863281 2.433594 95.625 0.046875 101.632812 0.046875 C 107.640625 0.046875 113.402344 2.433594 117.652344 6.679688 Z M 117.652344 6.679688 " clip-rule="nonzero"/></clipPath><clipPath id="03a5a32552"><rect x="0" width="125" y="0" height="124"/></clipPath><clipPath id="160e3518fd"><path d="M 170 91 L 217 91 L 217 137 L 170 137 Z M 170 91 " clip-rule="nonzero"/></clipPath><clipPath id="3d71ca6773"><path d="M 193.632812 82.039062 L 225.671875 114.078125 L 193.507812 146.242188 L 161.46875 114.203125 Z M 193.632812 82.039062 " clip-rule="nonzero"/></clipPath><clipPath id="281cde137f"><path d="M 209.652344 98.058594 C 213.902344 102.308594 216.289062 108.070312 216.289062 114.078125 C 216.289062 120.085938 213.902344 125.847656 209.652344 130.097656 L 209.640625 130.113281 C 205.390625 134.359375 199.628906 136.746094 193.621094 136.746094 C 187.613281 136.746094 181.851562 134.359375 177.601562 130.113281 C 173.351562 125.863281 170.964844 120.101562 170.964844 114.09375 C 170.964844 108.082031 173.351562 102.320312 177.601562 98.074219 L 177.613281 98.058594 C 181.863281 93.8125 187.625 91.425781 193.632812 91.425781 C 199.640625 91.425781 205.40625 93.8125 209.652344 98.058594 Z M 209.652344 98.058594 " clip-rule="nonzero"/></clipPath><clipPath id="00fd1974ac"><path d="M 0.839844 0.28125 L 46.441406 0.28125 L 46.441406 45.878906 L 0.839844 45.878906 Z M 0.839844 0.28125 " clip-rule="nonzero"/></clipPath><clipPath id="f3ed73fbcb"><path d="M 23.632812 -8.960938 L 55.671875 23.078125 L 23.507812 55.242188 L -8.53125 23.203125 Z M 23.632812 -8.960938 " clip-rule="nonzero"/></clipPath><clipPath id="cf29f37dbd"><path d="M 39.652344 7.058594 C 43.902344 11.308594 46.289062 17.070312 46.289062 23.078125 C 46.289062 29.085938 43.902344 34.847656 39.652344 39.097656 L 39.640625 39.113281 C 35.390625 43.359375 29.628906 45.746094 23.621094 45.746094 C 17.613281 45.746094 11.851562 43.359375 7.601562 39.113281 C 3.351562 34.863281 0.964844 29.101562 0.964844 23.09375 C 0.964844 17.082031 3.351562 11.320312 7.601562 7.074219 L 7.613281 7.058594 C 11.863281 2.8125 17.625 0.425781 23.632812 0.425781 C 29.640625 0.425781 35.40625 2.8125 39.652344 7.058594 Z M 39.652344 7.058594 " clip-rule="nonzero"/></clipPath><clipPath id="1dc0418d54"><rect x="0" width="47" y="0" height="46"/></clipPath><clipPath id="40d7b2f21b"><path d="M 10 10 L 138 10 L 138 137 L 10 137 Z M 10 10 " clip-rule="nonzero"/></clipPath><clipPath id="97e372ba32"><path d="M 114.65625 0.660156 L 146.695312 32.695312 L 33.183594 146.207031 L 1.144531 114.171875 Z M 114.65625 0.660156 " clip-rule="nonzero"/></clipPath><clipPath id="c2bd79a6e1"><path d="M 130.675781 16.679688 C 134.921875 20.925781 137.308594 26.6875 137.308594 32.695312 C 137.308594 38.707031 134.921875 44.46875 130.675781 48.714844 L 49.277344 130.113281 C 45.03125 134.359375 39.269531 136.746094 33.261719 136.746094 C 27.25 136.746094 21.488281 134.359375 17.242188 130.113281 C 12.992188 125.863281 10.605469 120.101562 10.605469 114.09375 C 10.605469 108.082031 12.992188 102.320312 17.242188 98.074219 L 98.636719 16.679688 C 102.882812 12.429688 108.648438 10.042969 114.65625 10.042969 C 120.664062 10.042969 126.425781 12.429688 130.675781 16.679688 Z M 130.675781 16.679688 " clip-rule="nonzero"/></clipPath><clipPath id="22358fe827"><path d="M 0.519531 0 L 127.480469 0 L 127.480469 126.878906 L 0.519531 126.878906 Z M 0.519531 0 " clip-rule="nonzero"/></clipPath><clipPath id="09e218cbea"><path d="M 104.65625 -9.339844 L 136.695312 22.695312 L 23.183594 136.207031 L -8.855469 104.171875 Z M 104.65625 -9.339844 " clip-rule="nonzero"/></clipPath><clipPath id="2021136f80"><path d="M 120.675781 6.679688 C 124.921875 10.925781 127.308594 16.6875 127.308594 22.695312 C 127.308594 28.707031 124.921875 34.46875 120.675781 38.714844 L 39.277344 120.113281 C 35.03125 124.359375 29.269531 126.746094 23.261719 126.746094 C 17.25 126.746094 11.488281 124.359375 7.242188 120.113281 C 2.992188 115.863281 0.605469 110.101562 0.605469 104.09375 C 0.605469 98.082031 2.992188 92.320312 7.242188 88.074219 L 88.636719 6.679688 C 92.882812 2.429688 98.648438 0.0429688 104.65625 0.0429688 C 110.664062 0.0429688 116.425781 2.429688 120.675781 6.679688 Z M 120.675781 6.679688 " clip-rule="nonzero"/></clipPath><clipPath id="a2eb312a7f"><rect x="0" width="128" y="0" height="127"/></clipPath><clipPath id="2761bed34e"><rect x="0" width="226" y="0" height="147"/></clipPath></defs><g transform="matrix(1, 0, 0, 1, 490, 647)"><g clip-path="url(#bb1f75a21f)"><g fill="#191919" fill-opacity="1"><g transform="translate(0.888585, 170.636031)"><g><path d="M 127.828125 -112.828125 L 127.828125 0 L 112.984375 0 L 112.984375 -84.125 L 75.484375 0 L 65.0625 0 L 27.390625 -84.296875 L 27.390625 0 L 12.546875 0 L 12.546875 -112.828125 L 28.53125 -112.828125 L 70.265625 -19.5625 L 112.015625 -112.828125 Z M 127.828125 -112.828125 "/></g></g></g><g fill="#191919" fill-opacity="1"><g transform="translate(153.00182, 170.636031)"><g><path d="M 64.078125 1.140625 C 53.535156 1.140625 43.914062 -1.332031 35.21875 -6.28125 C 26.519531 -11.226562 19.644531 -18.128906 14.59375 -26.984375 C 9.539062 -35.835938 7.015625 -45.8125 7.015625 -56.90625 C 7.015625 -67.988281 9.539062 -77.957031 14.59375 -86.8125 C 19.644531 -95.675781 26.519531 -102.582031 35.21875 -107.53125 C 43.914062 -112.476562 53.535156 -114.953125 64.078125 -114.953125 C 74.734375 -114.953125 84.40625 -112.476562 93.09375 -107.53125 C 101.789062 -102.582031 108.640625 -95.707031 113.640625 -86.90625 C 118.640625 -78.101562 121.140625 -68.101562 121.140625 -56.90625 C 121.140625 -45.707031 118.640625 -35.707031 113.640625 -26.90625 C 108.640625 -18.101562 101.789062 -11.226562 93.09375 -6.28125 C 84.40625 -1.332031 74.734375 1.140625 64.078125 1.140625 Z M 64.078125 -11.734375 C 72.015625 -11.734375 79.160156 -13.582031 85.515625 -17.28125 C 91.878906 -20.976562 96.878906 -26.25 100.515625 -33.09375 C 104.160156 -39.945312 105.984375 -47.882812 105.984375 -56.90625 C 105.984375 -66.03125 104.160156 -73.988281 100.515625 -80.78125 C 96.878906 -87.582031 91.90625 -92.828125 85.59375 -96.515625 C 79.289062 -100.210938 72.117188 -102.0625 64.078125 -102.0625 C 56.035156 -102.0625 48.859375 -100.210938 42.546875 -96.515625 C 36.242188 -92.828125 31.269531 -87.582031 27.625 -80.78125 C 23.988281 -73.988281 22.171875 -66.03125 22.171875 -56.90625 C 22.171875 -47.882812 23.988281 -39.945312 27.625 -33.09375 C 31.269531 -26.25 36.269531 -20.976562 42.625 -17.28125 C 48.988281 -13.582031 56.140625 -11.734375 64.078125 -11.734375 Z M 64.078125 -11.734375 "/></g></g></g><g fill="#191919" fill-opacity="1"><g transform="translate(292.88738, 170.636031)"><g><path d="M 69.453125 -58.53125 C 73.585938 -57.882812 77.363281 -56.203125 80.78125 -53.484375 C 84.207031 -50.765625 86.925781 -47.394531 88.9375 -43.375 C 90.945312 -39.351562 91.953125 -35.054688 91.953125 -30.484375 C 91.953125 -24.722656 90.484375 -19.53125 87.546875 -14.90625 C 84.617188 -10.289062 80.351562 -6.648438 74.75 -3.984375 C 69.15625 -1.328125 62.554688 0 54.953125 0 L 12.546875 0 L 12.546875 -113.640625 L 53.3125 -113.640625 C 61.03125 -113.640625 67.609375 -112.363281 73.046875 -109.8125 C 78.484375 -107.257812 82.554688 -103.804688 85.265625 -99.453125 C 87.984375 -95.109375 89.34375 -90.21875 89.34375 -84.78125 C 89.34375 -78.039062 87.519531 -72.46875 83.875 -68.0625 C 80.238281 -63.664062 75.429688 -60.488281 69.453125 -58.53125 Z M 27.390625 -64.5625 L 52.34375 -64.5625 C 59.289062 -64.5625 64.664062 -66.191406 68.46875 -69.453125 C 72.28125 -72.710938 74.1875 -77.222656 74.1875 -82.984375 C 74.1875 -88.742188 72.28125 -93.253906 68.46875 -96.515625 C 64.664062 -99.785156 59.179688 -101.421875 52.015625 -101.421875 L 27.390625 -101.421875 Z M 53.640625 -12.234375 C 61.035156 -12.234375 66.796875 -13.96875 70.921875 -17.4375 C 75.054688 -20.914062 77.125 -25.753906 77.125 -31.953125 C 77.125 -38.253906 74.945312 -43.226562 70.59375 -46.875 C 66.25 -50.519531 60.4375 -52.34375 53.15625 -52.34375 L 27.390625 -52.34375 L 27.390625 -12.234375 Z M 53.640625 -12.234375 "/></g></g></g><g fill="#191919" fill-opacity="1"><g transform="translate(404.567702, 170.636031)"><g><path d="M 88.53125 -80.375 C 88.53125 -70.925781 85.296875 -63.078125 78.828125 -56.828125 C 72.359375 -50.578125 62.492188 -47.453125 49.234375 -47.453125 L 27.390625 -47.453125 L 27.390625 0 L 12.546875 0 L 12.546875 -113.640625 L 49.234375 -113.640625 C 62.066406 -113.640625 71.820312 -110.539062 78.5 -104.34375 C 85.1875 -98.15625 88.53125 -90.164062 88.53125 -80.375 Z M 49.234375 -59.671875 C 57.492188 -59.671875 63.582031 -61.460938 67.5 -65.046875 C 71.414062 -68.640625 73.375 -73.75 73.375 -80.375 C 73.375 -94.40625 65.328125 -101.421875 49.234375 -101.421875 L 27.390625 -101.421875 L 27.390625 -59.671875 Z M 49.234375 -59.671875 "/></g></g></g><g fill="#191919" fill-opacity="1"><g transform="translate(510.704802, 170.636031)"><g><path d="M 79.734375 -25.265625 L 30.15625 -25.265625 L 21.03125 0 L 5.375 0 L 46.46875 -112.984375 L 63.59375 -112.984375 L 104.515625 0 L 88.859375 0 Z M 75.484375 -37.34375 L 54.953125 -94.734375 L 34.40625 -37.34375 Z M 75.484375 -37.34375 "/></g></g></g><g fill="#191919" fill-opacity="1"><g transform="translate(632.330313, 170.636031)"><g><path d="M 27.390625 -101.578125 L 27.390625 -63.59375 L 68.8125 -63.59375 L 68.8125 -51.359375 L 27.390625 -51.359375 L 27.390625 -12.234375 L 73.703125 -12.234375 L 73.703125 0 L 12.546875 0 L 12.546875 -113.8125 L 73.703125 -113.8125 L 73.703125 -101.578125 Z M 27.390625 -101.578125 "/></g></g></g></g></g><g transform="matrix(1, 0, 0, 1, 241, 688)"><g clip-path="url(#2761bed34e)"><g clip-path="url(#a0d068a46a)"><g clip-path="url(#15dc0fac06)"><g transform="matrix(1, 0, 0, 1, 92, 11)"><g clip-path="url(#08c34747a6)"><g clip-path="url(#060b60d481)"><g clip-path="url(#a9e1c9a2d3)"><path fill="#cbd4ff" d="M 0.00390625 0.492188 L 45.3125 0.492188 L 45.3125 123.144531 L 0.00390625 123.144531 Z M 0.00390625 0.492188 " fill-opacity="1" fill-rule="nonzero"/></g></g></g></g></g></g><g clip-path="url(#8acbdefff6)"><g clip-path="url(#42c3e0d9f4)"><g transform="matrix(1, 0, 0, 1, 170, 13)"><g clip-path="url(#9c0d1c77df)"><g clip-path="url(#83022102f0)"><g clip-path="url(#c4e0f71e8d)"><path fill="#cbd4ff" d="M 0.71875 0.292969 L 46.027344 0.292969 L 46.027344 121.175781 L 0.71875 121.175781 Z M 0.71875 0.292969 " fill-opacity="1" fill-rule="nonzero"/></g></g></g></g></g></g><g clip-path="url(#71bbcf214f)"><g clip-path="url(#4de88fe7c4)"><g clip-path="url(#0c99afd2fc)"><g transform="matrix(1, 0, 0, 1, 92, 13)"><g clip-path="url(#03a5a32552)"><g clip-path="url(#a758ff65b4)"><g clip-path="url(#aed0bfae12)"><g clip-path="url(#82eab4460b)"><path fill="#5b3ce3" d="M 101.632812 -9.339844 L 133.671875 22.699219 L 23.289062 133.082031 L -8.75 101.042969 Z M 101.632812 -9.339844 " fill-opacity="1" fill-rule="nonzero"/></g></g></g></g></g></g></g></g><g clip-path="url(#160e3518fd)"><g clip-path="url(#3d71ca6773)"><g clip-path="url(#281cde137f)"><g transform="matrix(1, 0, 0, 1, 170, 91)"><g clip-path="url(#1dc0418d54)"><g clip-path="url(#00fd1974ac)"><g clip-path="url(#f3ed73fbcb)"><g clip-path="url(#cf29f37dbd)"><path fill="#5b3ce3" d="M 23.632812 -8.960938 L 55.671875 23.078125 L 23.632812 55.117188 L -8.40625 23.078125 Z M 23.632812 -8.960938 " fill-opacity="1" fill-rule="nonzero"/></g></g></g></g></g></g></g></g><g clip-path="url(#40d7b2f21b)"><g clip-path="url(#97e372ba32)"><g clip-path="url(#c2bd79a6e1)"><g transform="matrix(1, 0, 0, 1, 10, 10)"><g clip-path="url(#a2eb312a7f)"><g clip-path="url(#22358fe827)"><g clip-path="url(#09e218cbea)"><g clip-path="url(#2021136f80)"><path fill="#5b3ce3" d="M 104.65625 -9.339844 L 136.695312 22.695312 L 23.308594 136.082031 L -8.730469 104.046875 Z M 104.65625 -9.339844 " fill-opacity="1" fill-rule="nonzero"/></g></g></g></g></g></g></g></g></g></g></svg>