<svg xmlns="http://www.w3.org/2000/svg" xmlns:xlink="http://www.w3.org/1999/xlink" width="728" zoomAndPan="magnify" viewBox="383 636 728 228" height="228" preserveAspectRatio="xMidYMid meet" version="1.0"><defs><g/><clipPath id="83d869d7e0"><rect x="0" width="728" y="0" height="228"/></clipPath></defs><g transform="matrix(1, 0, 0, 1, 383, 636)"><g clip-path="url(#83d869d7e0)"><g fill="#191919" fill-opacity="1"><g transform="translate(0.581377, 170.051022)"><g><path d="M 127.828125 -112.828125 L 127.828125 0 L 112.984375 0 L 112.984375 -84.125 L 75.484375 0 L 65.0625 0 L 27.390625 -84.296875 L 27.390625 0 L 12.546875 0 L 12.546875 -112.828125 L 28.53125 -112.828125 L 70.265625 -19.5625 L 112.015625 -112.828125 Z M 127.828125 -112.828125 "/></g></g></g><g fill="#191919" fill-opacity="1"><g transform="translate(152.69812, 170.051022)"><g><path d="M 64.078125 1.140625 C 53.535156 1.140625 43.914062 -1.332031 35.21875 -6.28125 C 26.519531 -11.226562 19.644531 -18.128906 14.59375 -26.984375 C 9.539062 -35.835938 7.015625 -45.8125 7.015625 -56.90625 C 7.015625 -67.988281 9.539062 -77.957031 14.59375 -86.8125 C 19.644531 -95.675781 26.519531 -102.582031 35.21875 -107.53125 C 43.914062 -112.476562 53.535156 -114.953125 64.078125 -114.953125 C 74.734375 -114.953125 84.40625 -112.476562 93.09375 -107.53125 C 101.789062 -102.582031 108.640625 -95.707031 113.640625 -86.90625 C 118.640625 -78.101562 121.140625 -68.101562 121.140625 -56.90625 C 121.140625 -45.707031 118.640625 -35.707031 113.640625 -26.90625 C 108.640625 -18.101562 101.789062 -11.226562 93.09375 -6.28125 C 84.40625 -1.332031 74.734375 1.140625 64.078125 1.140625 Z M 64.078125 -11.734375 C 72.015625 -11.734375 79.160156 -13.582031 85.515625 -17.28125 C 91.878906 -20.976562 96.878906 -26.25 100.515625 -33.09375 C 104.160156 -39.945312 105.984375 -47.882812 105.984375 -56.90625 C 105.984375 -66.03125 104.160156 -73.988281 100.515625 -80.78125 C 96.878906 -87.582031 91.90625 -92.828125 85.59375 -96.515625 C 79.289062 -100.210938 72.117188 -102.0625 64.078125 -102.0625 C 56.035156 -102.0625 48.859375 -100.210938 42.546875 -96.515625 C 36.242188 -92.828125 31.269531 -87.582031 27.625 -80.78125 C 23.988281 -73.988281 22.171875 -66.03125 22.171875 -56.90625 C 22.171875 -47.882812 23.988281 -39.945312 27.625 -33.09375 C 31.269531 -26.25 36.269531 -20.976562 42.625 -17.28125 C 48.988281 -13.582031 56.140625 -11.734375 64.078125 -11.734375 Z M 64.078125 -11.734375 "/></g></g></g><g fill="#191919" fill-opacity="1"><g transform="translate(292.586868, 170.051022)"><g><path d="M 69.453125 -58.53125 C 73.585938 -57.882812 77.363281 -56.203125 80.78125 -53.484375 C 84.207031 -50.765625 86.925781 -47.394531 88.9375 -43.375 C 90.945312 -39.351562 91.953125 -35.054688 91.953125 -30.484375 C 91.953125 -24.722656 90.484375 -19.53125 87.546875 -14.90625 C 84.617188 -10.289062 80.351562 -6.648438 74.75 -3.984375 C 69.15625 -1.328125 62.554688 0 54.953125 0 L 12.546875 0 L 12.546875 -113.640625 L 53.3125 -113.640625 C 61.03125 -113.640625 67.609375 -112.363281 73.046875 -109.8125 C 78.484375 -107.257812 82.554688 -103.804688 85.265625 -99.453125 C 87.984375 -95.109375 89.34375 -90.21875 89.34375 -84.78125 C 89.34375 -78.039062 87.519531 -72.46875 83.875 -68.0625 C 80.238281 -63.664062 75.429688 -60.488281 69.453125 -58.53125 Z M 27.390625 -64.5625 L 52.34375 -64.5625 C 59.289062 -64.5625 64.664062 -66.191406 68.46875 -69.453125 C 72.28125 -72.710938 74.1875 -77.222656 74.1875 -82.984375 C 74.1875 -88.742188 72.28125 -93.253906 68.46875 -96.515625 C 64.664062 -99.785156 59.179688 -101.421875 52.015625 -101.421875 L 27.390625 -101.421875 Z M 53.640625 -12.234375 C 61.035156 -12.234375 66.796875 -13.96875 70.921875 -17.4375 C 75.054688 -20.914062 77.125 -25.753906 77.125 -31.953125 C 77.125 -38.253906 74.945312 -43.226562 70.59375 -46.875 C 66.25 -50.519531 60.4375 -52.34375 53.15625 -52.34375 L 27.390625 -52.34375 L 27.390625 -12.234375 Z M 53.640625 -12.234375 "/></g></g></g><g fill="#191919" fill-opacity="1"><g transform="translate(404.269696, 170.051022)"><g><path d="M 88.53125 -80.375 C 88.53125 -70.925781 85.296875 -63.078125 78.828125 -56.828125 C 72.359375 -50.578125 62.492188 -47.453125 49.234375 -47.453125 L 27.390625 -47.453125 L 27.390625 0 L 12.546875 0 L 12.546875 -113.640625 L 49.234375 -113.640625 C 62.066406 -113.640625 71.820312 -110.539062 78.5 -104.34375 C 85.1875 -98.15625 88.53125 -90.164062 88.53125 -80.375 Z M 49.234375 -59.671875 C 57.492188 -59.671875 63.582031 -61.460938 67.5 -65.046875 C 71.414062 -68.640625 73.375 -73.75 73.375 -80.375 C 73.375 -94.40625 65.328125 -101.421875 49.234375 -101.421875 L 27.390625 -101.421875 L 27.390625 -59.671875 Z M 49.234375 -59.671875 "/></g></g></g><g fill="#191919" fill-opacity="1"><g transform="translate(510.409173, 170.051022)"><g><path d="M 79.734375 -25.265625 L 30.15625 -25.265625 L 21.03125 0 L 5.375 0 L 46.46875 -112.984375 L 63.59375 -112.984375 L 104.515625 0 L 88.859375 0 Z M 75.484375 -37.34375 L 54.953125 -94.734375 L 34.40625 -37.34375 Z M 75.484375 -37.34375 "/></g></g></g><g fill="#191919" fill-opacity="1"><g transform="translate(632.037468, 170.051022)"><g><path d="M 27.390625 -101.578125 L 27.390625 -63.59375 L 68.8125 -63.59375 L 68.8125 -51.359375 L 27.390625 -51.359375 L 27.390625 -12.234375 L 73.703125 -12.234375 L 73.703125 0 L 12.546875 0 L 12.546875 -113.8125 L 73.703125 -113.8125 L 73.703125 -101.578125 Z M 27.390625 -101.578125 "/></g></g></g></g></g></svg>